<?xml version="1.0" standalone="no"?>
<!DOCTYPE svg PUBLIC "-//W3C//DTD SVG 20010904//EN"
 "http://www.w3.org/TR/2001/REC-SVG-20010904/DTD/svg10.dtd">
<svg version="1.0" xmlns="http://www.w3.org/2000/svg"
 width="500.000000pt" height="500.000000pt" viewBox="0 0 500.000000 500.000000"
 preserveAspectRatio="xMidYMid meet">
<metadata>
Created by potrace 1.14, written by Peter Selinger 2001-2017
</metadata>
<g transform="translate(0.000000,500.000000) scale(0.100000,-0.100000)"
fill="#000000" stroke="none">
<path d="M2930 4150 l0 -50 375 0 375 0 0 -380 0 -380 50 0 50 0 0 430 0 430
-425 0 -425 0 0 -50z"/>
<path d="M2068 3858 l-3 -123 -37 2 c-32 2 -38 -1 -47 -27 -9 -28 -8 -31 19
-45 46 -24 87 -19 121 14 16 16 29 36 29 44 0 9 15 -1 38 -23 42 -42 89 -57
149 -45 23 4 51 21 75 45 l38 38 0 -39 c0 -39 0 -39 40 -39 l40 0 0 60 0 60
50 0 50 0 0 -60 0 -60 80 0 79 0 3 90 3 89 55 -89 55 -89 43 -1 42 0 0 160 0
160 -40 0 -39 0 -3 -92 -3 -92 -58 92 -58 91 -79 0 -80 0 0 -65 0 -64 -50 0
-50 0 0 66 0 65 -37 -3 c-37 -3 -38 -4 -41 -45 l-3 -41 -39 41 c-38 41 -40 42
-107 42 -73 0 -106 -15 -137 -65 -15 -25 -15 -25 -16 23 l0 47 -40 0 -39 0 -3
-122z m274 32 c44 -34 43 -126 -2 -150 -60 -32 -115 5 -115 77 0 37 5 49 28
69 34 29 56 30 89 4z"/>
<path d="M1207 3773 c-4 -3 -7 -197 -7 -430 l0 -423 430 0 430 0 0 50 0 50
-375 0 -375 0 0 380 0 380 -48 0 c-27 0 -52 -3 -55 -7z"/>
<path d="M1679 3427 c-39 -26 -79 -97 -79 -142 1 -45 33 -109 70 -135 68 -49
186 -29 226 38 l18 31 22 -33 c56 -81 182 -87 242 -11 l22 28 0 -37 0 -36 185
0 185 0 0 35 0 35 -55 0 c-52 0 -55 1 -55 25 0 24 3 25 55 25 l55 0 0 35 0 35
-55 0 c-54 0 -55 0 -55 30 l0 30 85 0 85 0 0 -125 0 -125 40 0 40 0 0 125 0
125 30 0 30 0 0 -125 0 -125 39 0 40 0 3 51 3 50 39 -50 38 -51 129 0 129 0 0
35 0 35 -50 0 c-47 0 -50 2 -50 25 0 23 3 25 50 25 l50 0 0 35 0 35 -50 0
c-49 0 -50 1 -50 30 0 29 1 30 50 30 l50 0 0 35 0 35 -90 0 -90 0 0 -146 0
-146 -40 48 c-39 47 -39 49 -21 64 64 51 49 148 -27 170 -23 7 -128 10 -287 8
l-250 -3 -3 -122 -3 -123 -49 0 -50 0 0 125 0 125 -40 0 -40 0 0 -70 0 -70
-70 0 -70 0 0 -30 c0 -28 3 -30 35 -30 40 0 44 -9 15 -35 -49 -44 -120 0 -120
76 0 74 68 112 122 69 l25 -19 23 24 c27 29 22 49 -21 71 -23 12 -49 15 -92
12 -55 -4 -63 -8 -98 -45 l-38 -41 -16 24 c-42 65 -150 85 -216 41z m144 -79
c42 -50 6 -148 -56 -148 -63 0 -100 79 -66 141 22 42 89 46 122 7z m1076 15
c12 -23 -4 -53 -29 -53 -16 0 -20 7 -20 35 0 28 4 35 20 35 10 0 23 -8 29 -17z"/>
<path d="M3200 3290 l0 -160 90 0 90 0 0 35 0 35 -50 0 c-47 0 -50 2 -50 25 0
23 3 25 50 25 l50 0 0 35 0 35 -50 0 c-49 0 -50 1 -50 30 0 29 1 30 50 30 l50
0 0 35 0 35 -90 0 -90 0 0 -160z"/>
<path d="M1022 2570 c-34 -21 -62 -72 -62 -112 0 -34 35 -85 69 -103 30 -15
125 -21 155 -9 12 5 16 21 16 75 l0 69 -56 0 -56 0 4 -35 c4 -39 -8 -47 -21
-13 -20 54 24 91 83 70 45 -17 46 -16 46 23 0 29 -5 37 -26 45 -43 17 -116 12
-152 -10z m142 -6 c9 -3 16 -14 16 -24 0 -16 -4 -17 -29 -7 -62 23 -125 -38
-97 -94 13 -26 60 -54 76 -44 16 10 12 45 -5 45 -8 0 -15 7 -15 15 0 10 11 15
35 15 l35 0 0 -55 0 -55 -61 0 c-74 0 -114 21 -130 67 -25 77 26 143 111 143
27 0 55 -3 64 -6z"/>
<path d="M1220 2465 l0 -125 49 0 50 0 3 53 3 52 28 -52 27 -53 89 0 c81 0 90
2 96 20 5 15 15 20 40 20 24 0 38 -6 45 -20 10 -18 21 -20 110 -20 l100 0 0
39 c0 37 2 39 36 46 63 11 99 66 78 120 -12 29 -60 45 -138 45 l-75 0 -3 -117
-3 -118 -49 118 -49 118 -50 -3 -51 -3 -45 -108 -45 -109 -24 47 c-17 34 -21
50 -13 58 21 21 13 74 -15 96 -22 17 -41 21 -110 21 l-84 0 0 -125z m182 93
c8 -7 17 -20 20 -28 8 -23 -9 -60 -28 -60 -15 0 -15 -3 3 -22 11 -13 28 -38
37 -55 l17 -33 -31 0 c-24 0 -33 7 -49 38 -39 76 -71 79 -71 6 0 -42 -1 -44
-30 -44 l-30 0 0 105 0 105 73 0 c44 0 79 -5 89 -12z m282 -80 c21 -51 41 -99
43 -105 9 -23 -55 -16 -67 7 -8 16 -21 20 -56 20 -37 0 -47 -4 -51 -20 -4 -15
-14 -20 -38 -20 l-33 0 35 83 c19 45 39 92 44 105 7 17 16 22 47 22 l39 0 37
-92z m254 76 c28 -19 29 -64 3 -88 -11 -10 -38 -20 -60 -23 -40 -5 -41 -7 -41
-44 0 -37 -2 -39 -30 -39 l-30 0 0 105 0 105 68 0 c45 0 75 -5 90 -16z"/>
<path d="M1300 2515 c0 -30 3 -35 25 -35 13 0 28 8 34 17 13 25 -5 53 -34 53
-22 0 -25 -4 -25 -35z m48 -3 c2 -7 -3 -12 -12 -12 -9 0 -16 7 -16 16 0 17 22
14 28 -4z"/>
<path d="M1586 2473 c-9 -26 -16 -48 -16 -50 0 -2 16 -3 35 -3 23 0 35 5 35
14 0 15 -28 86 -34 86 -2 0 -11 -21 -20 -47z m34 -24 c0 -5 -4 -9 -10 -9 -5 0
-10 7 -10 16 0 8 5 12 10 9 6 -3 10 -10 10 -16z"/>
<path d="M1840 2506 c0 -28 4 -36 18 -36 28 0 44 16 40 41 -2 18 -10 25 -30
27 -26 3 -28 1 -28 -32z m40 -1 c0 -8 -4 -15 -10 -15 -5 0 -10 7 -10 15 0 8 5
15 10 15 6 0 10 -7 10 -15z"/>
<path d="M1990 2465 l0 -125 50 0 50 0 0 45 c0 45 0 45 35 45 35 0 35 0 35
-45 l0 -45 50 0 50 0 0 125 0 125 -50 0 -50 0 0 -40 c0 -39 -1 -40 -35 -40
-34 0 -35 1 -35 40 l0 40 -50 0 -50 0 0 -125z m80 65 l0 -40 55 0 55 0 0 40
c0 38 2 40 30 40 l30 0 0 -105 0 -105 -29 0 c-28 0 -30 3 -33 43 l-3 42 -50 0
-50 0 -3 -42 c-3 -40 -5 -43 -33 -43 l-29 0 0 105 0 105 30 0 c28 0 30 -2 30
-40z"/>
<path d="M2282 2468 l3 -123 48 -3 47 -3 0 125 0 126 -50 0 -51 0 3 -122z m78
-3 l0 -105 -30 0 -30 0 0 105 0 105 30 0 30 0 0 -105z"/>
<path d="M2462 2576 c-56 -30 -79 -115 -47 -175 26 -51 115 -76 179 -51 22 8
26 16 26 51 0 35 -2 40 -17 34 -59 -26 -103 -13 -103 30 0 43 44 56 103 30 15
-6 17 -1 17 38 0 38 -3 46 -22 51 -39 10 -112 6 -136 -8z m136 -33 c3 -19 0
-21 -36 -16 -32 4 -44 1 -61 -16 -47 -47 -8 -117 62 -108 31 4 37 2 37 -13 0
-22 -19 -30 -77 -30 -36 0 -50 6 -74 29 -24 24 -29 38 -29 76 0 38 5 52 30 76
27 27 35 30 87 27 51 -3 58 -6 61 -25z"/>
<path d="M2778 2475 c-27 -63 -48 -120 -48 -125 0 -6 22 -10 49 -10 40 0 50 3
54 20 4 15 14 20 42 20 28 0 38 -5 42 -20 4 -17 14 -20 54 -20 28 0 49 5 49
11 0 6 -21 62 -47 125 l-48 114 -50 0 -50 0 -47 -115z m179 -10 l42 -100 -27
-3 c-19 -3 -31 3 -41 17 -10 16 -24 21 -56 21 -32 0 -46 -5 -56 -21 -10 -14
-22 -20 -41 -17 l-26 3 25 60 c65 156 58 147 100 143 37 -3 38 -3 80 -103z"/>
<path d="M2856 2480 c-22 -56 -21 -60 20 -60 33 0 36 2 30 25 -9 34 -25 75
-30 75 -2 0 -11 -18 -20 -40z m28 -25 c3 -9 0 -15 -9 -15 -9 0 -12 6 -9 15 4
8 7 15 9 15 2 0 5 -7 9 -15z"/>
<path d="M3030 2466 l0 -126 50 0 50 0 0 46 c0 39 2 45 14 34 8 -6 20 -27 26
-46 11 -33 14 -34 61 -34 48 0 50 1 43 23 -3 12 -15 39 -26 61 -14 27 -17 41
-9 49 17 17 13 62 -8 88 -17 21 -29 24 -110 27 l-91 4 0 -126z m178 88 c28
-20 28 -58 0 -79 -21 -15 -22 -17 -5 -26 17 -10 47 -59 47 -79 0 -5 -13 -10
-29 -10 -23 0 -30 6 -35 26 -7 27 -48 74 -66 74 -5 0 -10 -22 -10 -50 0 -49
-1 -50 -30 -50 l-30 0 0 105 0 105 68 0 c45 0 75 -5 90 -16z"/>
<path d="M3110 2515 c0 -34 2 -36 28 -33 23 3 27 8 27 33 0 25 -4 30 -27 33
-26 3 -28 1 -28 -33z m40 0 c0 -8 -4 -15 -10 -15 -5 0 -10 7 -10 15 0 8 5 15
10 15 6 0 10 -7 10 -15z"/>
<path d="M3270 2550 c0 -39 1 -40 35 -40 l35 0 0 -85 0 -85 50 0 50 0 0 84 0
85 33 3 c29 3 32 6 35 41 l3 37 -120 0 -121 0 0 -40z m220 0 c0 -16 -7 -20
-35 -20 l-35 0 0 -85 0 -85 -30 0 -30 0 0 85 0 85 -35 0 c-28 0 -35 4 -35 20
0 19 7 20 100 20 93 0 100 -1 100 -20z"/>
<path d="M3520 2464 l0 -125 48 3 47 3 3 123 3 122 -51 0 -50 0 0 -126z m80 1
l0 -105 -30 0 -30 0 0 105 0 105 30 0 30 0 0 -105z"/>
<path d="M3655 2565 c-36 -35 -32 -71 11 -111 36 -34 27 -47 -17 -24 -17 10
-19 7 -19 -33 0 -38 3 -46 23 -51 67 -18 129 1 147 44 14 34 4 58 -42 94 -22
17 -28 26 -17 26 9 0 22 -7 29 -15 17 -20 30 -19 30 3 0 15 6 17 35 14 l35 -4
0 -84 0 -84 50 0 50 0 0 85 0 85 35 0 c34 0 35 1 35 40 l0 40 -120 0 c-102 0
-120 -2 -120 -16 0 -14 -2 -14 -22 0 -35 25 -94 20 -123 -9z m113 -7 c24 -24
14 -37 -23 -31 -31 5 -35 3 -35 -15 0 -14 11 -27 30 -37 40 -21 55 -51 41 -81
-18 -41 -123 -48 -129 -8 -3 18 1 20 33 16 29 -3 35 -1 35 14 0 11 -16 32 -35
47 -38 31 -45 60 -18 89 19 21 82 25 101 6z m252 -8 c0 -16 -7 -20 -35 -20
l-35 0 0 -85 0 -85 -30 0 -30 0 0 85 0 85 -35 0 c-28 0 -35 4 -35 20 0 19 7
20 100 20 93 0 100 -1 100 -20z"/>
<path d="M1022 2220 c-34 -21 -62 -72 -62 -112 0 -34 35 -85 69 -103 30 -15
125 -21 155 -9 12 5 16 21 16 75 l0 69 -56 0 -56 0 4 -35 c4 -39 -8 -47 -21
-13 -20 54 24 91 83 70 45 -17 46 -16 46 23 0 29 -5 37 -26 45 -43 17 -116 12
-152 -10z m142 -6 c9 -3 16 -14 16 -24 0 -16 -4 -17 -29 -7 -62 23 -125 -38
-97 -94 13 -26 60 -54 76 -44 16 10 12 45 -5 45 -8 0 -15 7 -15 15 0 10 11 15
35 15 l35 0 0 -55 0 -55 -61 0 c-74 0 -114 21 -130 67 -25 77 26 143 111 143
27 0 55 -3 64 -6z"/>
<path d="M1220 2115 l0 -125 49 0 50 0 3 53 3 52 28 -52 27 -53 89 0 c81 0 90
2 96 20 5 15 15 20 40 20 24 0 38 -6 45 -20 10 -18 21 -20 110 -20 l100 0 0
39 c0 37 2 39 36 46 63 11 99 66 78 120 -12 29 -60 45 -138 45 l-75 0 -3 -117
-3 -118 -49 118 -49 118 -50 -3 -51 -3 -45 -108 -45 -109 -24 47 c-17 34 -21
50 -13 58 21 21 13 74 -15 96 -22 17 -41 21 -110 21 l-84 0 0 -125z m182 93
c8 -7 17 -20 20 -28 8 -23 -9 -60 -28 -60 -15 0 -15 -3 3 -22 11 -13 28 -38
37 -55 l17 -33 -31 0 c-24 0 -33 7 -49 38 -39 76 -71 79 -71 6 0 -42 -1 -44
-30 -44 l-30 0 0 105 0 105 73 0 c44 0 79 -5 89 -12z m282 -80 c21 -51 41 -99
43 -105 9 -23 -55 -16 -67 7 -8 16 -21 20 -56 20 -37 0 -47 -4 -51 -20 -4 -15
-14 -20 -38 -20 l-33 0 35 83 c19 45 39 92 44 105 7 17 16 22 47 22 l39 0 37
-92z m254 76 c28 -19 29 -64 3 -88 -11 -10 -38 -20 -60 -23 -40 -5 -41 -7 -41
-44 0 -37 -2 -39 -30 -39 l-30 0 0 105 0 105 68 0 c45 0 75 -5 90 -16z"/>
<path d="M1300 2165 c0 -30 3 -35 25 -35 13 0 28 8 34 17 13 25 -5 53 -34 53
-22 0 -25 -4 -25 -35z m48 -3 c2 -7 -3 -12 -12 -12 -9 0 -16 7 -16 16 0 17 22
14 28 -4z"/>
<path d="M1586 2123 c-9 -26 -16 -48 -16 -50 0 -2 16 -3 35 -3 23 0 35 5 35
14 0 15 -28 86 -34 86 -2 0 -11 -21 -20 -47z m34 -24 c0 -5 -4 -9 -10 -9 -5 0
-10 7 -10 16 0 8 5 12 10 9 6 -3 10 -10 10 -16z"/>
<path d="M1840 2156 c0 -28 4 -36 18 -36 28 0 44 16 40 41 -2 18 -10 25 -30
27 -26 3 -28 1 -28 -32z m40 -1 c0 -8 -4 -15 -10 -15 -5 0 -10 7 -10 15 0 8 5
15 10 15 6 0 10 -7 10 -15z"/>
<path d="M1990 2115 l0 -125 50 0 50 0 0 45 c0 45 0 45 35 45 35 0 35 0 35
-45 l0 -45 50 0 50 0 0 125 0 125 -50 0 -50 0 0 -40 c0 -39 -1 -40 -35 -40
-34 0 -35 1 -35 40 l0 40 -50 0 -50 0 0 -125z m80 65 l0 -40 55 0 55 0 0 40
c0 38 2 40 30 40 l30 0 0 -105 0 -105 -29 0 c-28 0 -30 3 -33 43 l-3 42 -50 0
-50 0 -3 -42 c-3 -40 -5 -43 -33 -43 l-29 0 0 105 0 105 30 0 c28 0 30 -2 30
-40z"/>
<path d="M2282 2118 l3 -123 48 -3 47 -3 0 125 0 126 -50 0 -51 0 3 -122z m78
-3 l0 -105 -30 0 -30 0 0 105 0 105 30 0 30 0 0 -105z"/>
<path d="M2462 2226 c-56 -30 -79 -115 -47 -175 26 -51 115 -76 179 -51 22 8
26 16 26 51 0 35 -2 40 -17 34 -59 -26 -103 -13 -103 30 0 43 44 56 103 30 15
-6 17 -1 17 38 0 38 -3 46 -22 51 -39 10 -112 6 -136 -8z m136 -33 c3 -19 0
-21 -36 -16 -32 4 -44 1 -61 -16 -47 -47 -8 -117 62 -108 31 4 37 2 37 -13 0
-22 -19 -30 -77 -30 -36 0 -50 6 -74 29 -24 24 -29 38 -29 76 0 38 5 52 30 76
27 27 35 30 87 27 51 -3 58 -6 61 -25z"/>
<path d="M2778 2125 c-27 -63 -48 -120 -48 -125 0 -6 22 -10 49 -10 40 0 50 3
54 20 4 15 14 20 42 20 28 0 38 -5 42 -20 4 -17 14 -20 54 -20 28 0 49 5 49
11 0 6 -21 62 -47 125 l-48 114 -50 0 -50 0 -47 -115z m179 -10 l42 -100 -27
-3 c-19 -3 -31 3 -41 17 -10 16 -24 21 -56 21 -32 0 -46 -5 -56 -21 -10 -14
-22 -20 -41 -17 l-26 3 25 60 c65 156 58 147 100 143 37 -3 38 -3 80 -103z"/>
<path d="M2856 2130 c-22 -56 -21 -60 20 -60 33 0 36 2 30 25 -9 34 -25 75
-30 75 -2 0 -11 -18 -20 -40z m28 -25 c3 -9 0 -15 -9 -15 -9 0 -12 6 -9 15 4
8 7 15 9 15 2 0 5 -7 9 -15z"/>
<path d="M3030 2116 l0 -126 50 0 50 0 0 46 c0 39 2 45 14 34 8 -6 20 -27 26
-46 11 -33 14 -34 61 -34 48 0 50 1 43 23 -3 12 -15 39 -26 61 -14 27 -17 41
-9 49 17 17 13 62 -8 88 -17 21 -29 24 -110 27 l-91 4 0 -126z m178 88 c28
-20 28 -58 0 -79 -21 -15 -22 -17 -5 -26 17 -10 47 -59 47 -79 0 -5 -13 -10
-29 -10 -23 0 -30 6 -35 26 -7 27 -48 74 -66 74 -5 0 -10 -22 -10 -50 0 -49
-1 -50 -30 -50 l-30 0 0 105 0 105 68 0 c45 0 75 -5 90 -16z"/>
<path d="M3110 2165 c0 -34 2 -36 28 -33 23 3 27 8 27 33 0 25 -4 30 -27 33
-26 3 -28 1 -28 -33z m40 0 c0 -8 -4 -15 -10 -15 -5 0 -10 7 -10 15 0 8 5 15
10 15 6 0 10 -7 10 -15z"/>
<path d="M3270 2200 c0 -39 1 -40 35 -40 l35 0 0 -85 0 -85 50 0 50 0 0 84 0
85 33 3 c29 3 32 6 35 41 l3 37 -120 0 -121 0 0 -40z m220 0 c0 -16 -7 -20
-35 -20 l-35 0 0 -85 0 -85 -30 0 -30 0 0 85 0 85 -35 0 c-28 0 -35 4 -35 20
0 19 7 20 100 20 93 0 100 -1 100 -20z"/>
<path d="M3520 2114 l0 -125 48 3 47 3 3 123 3 122 -51 0 -50 0 0 -126z m80 1
l0 -105 -30 0 -30 0 0 105 0 105 30 0 30 0 0 -105z"/>
<path d="M3655 2215 c-36 -35 -32 -71 11 -111 36 -34 27 -47 -17 -24 -17 10
-19 7 -19 -33 0 -38 3 -46 23 -51 67 -18 129 1 147 44 14 34 4 58 -42 94 -22
17 -28 26 -17 26 9 0 22 -7 29 -15 17 -20 30 -19 30 3 0 15 6 17 35 14 l35 -4
0 -84 0 -84 50 0 50 0 0 85 0 85 35 0 c34 0 35 1 35 40 l0 40 -120 0 c-102 0
-120 -2 -120 -16 0 -14 -2 -14 -22 0 -35 25 -94 20 -123 -9z m113 -7 c24 -24
14 -37 -23 -31 -31 5 -35 3 -35 -15 0 -14 11 -27 30 -37 40 -21 55 -51 41 -81
-18 -41 -123 -48 -129 -8 -3 18 1 20 33 16 29 -3 35 -1 35 14 0 11 -16 32 -35
47 -38 31 -45 60 -18 89 19 21 82 25 101 6z m252 -8 c0 -16 -7 -20 -35 -20
l-35 0 0 -85 0 -85 -30 0 -30 0 0 85 0 85 -35 0 c-28 0 -35 4 -35 20 0 19 7
20 100 20 93 0 100 -1 100 -20z"/>
<path d="M1065 1883 c-87 -23 -125 -130 -67 -193 31 -36 81 -50 146 -43 l46 6
0 63 0 64 -45 0 c-41 0 -45 -2 -45 -25 0 -14 5 -25 10 -25 6 0 10 -4 10 -10 0
-18 -39 -11 -50 9 -34 64 22 113 98 87 20 -7 22 -4 22 23 0 26 -5 31 -37 40
-40 11 -55 12 -88 4z"/>
<path d="M2485 1875 c-113 -40 -107 -191 10 -224 20 -5 42 -8 48 -6 7 2 24 6
40 9 23 6 27 11 27 41 0 33 -1 34 -28 24 -57 -20 -107 24 -82 71 13 25 48 34
83 21 26 -10 27 -9 27 24 0 18 -3 36 -7 38 -24 13 -83 14 -118 2z"/>
<path d="M3685 1879 c-57 -32 -61 -86 -10 -125 45 -34 45 -48 -1 -41 -35 6
-35 5 -32 -26 3 -27 8 -32 36 -38 109 -22 166 76 77 131 -19 12 -35 26 -35 31
0 12 37 12 45 -1 12 -19 25 -10 25 19 0 16 -6 34 -13 40 -21 17 -70 22 -92 10z"/>
<path d="M1230 1765 l0 -115 40 0 40 0 0 45 c0 34 4 45 16 45 8 0 24 -19 35
-45 l20 -45 89 0 c73 0 90 3 90 15 0 21 79 21 94 -1 8 -11 24 -14 53 -12 l42
3 -47 112 -47 113 -46 0 -47 0 -35 -83 c-20 -46 -41 -97 -47 -113 l-11 -28
-30 53 c-26 49 -28 56 -14 71 20 23 19 42 -6 74 -19 24 -26 26 -105 26 l-84 0
0 -115z m118 47 c3 -17 -2 -22 -17 -22 -16 0 -21 6 -21 26 0 33 33 30 38 -4z
m275 -52 c4 -15 0 -20 -15 -20 -14 0 -18 5 -14 16 3 9 6 20 6 25 0 17 17 1 23
-21z"/>
<path d="M1770 1765 l0 -115 40 0 40 0 0 40 c0 39 1 40 34 40 76 0 120 88 67
132 -18 14 -40 18 -102 18 l-79 0 0 -115z m117 49 c3 -9 0 -20 -8 -25 -23 -14
-29 -11 -29 16 0 28 27 35 37 9z"/>
<path d="M2000 1765 l0 -115 45 0 45 0 0 40 c0 39 1 40 35 40 34 0 35 -1 35
-40 l0 -40 45 0 45 0 0 115 0 115 -45 0 -45 0 0 -40 c0 -39 -1 -40 -35 -40
-34 0 -35 1 -35 40 l0 40 -45 0 -45 0 0 -115z"/>
<path d="M2290 1765 l0 -115 45 0 45 0 0 115 0 115 -45 0 -45 0 0 -115z"/>
<path d="M2816 1848 c-8 -18 -30 -70 -49 -115 l-35 -83 44 0 c30 0 46 5 50 15
8 21 83 20 98 -1 8 -11 24 -14 52 -12 l41 3 -47 110 -47 110 -47 3 c-44 3 -47
2 -60 -30z m74 -95 c0 -7 -7 -13 -15 -13 -16 0 -19 9 -9 35 5 13 8 14 15 3 5
-7 9 -19 9 -25z"/>
<path d="M3030 1765 l0 -115 45 0 45 0 0 46 c0 56 15 55 48 -4 21 -38 27 -42
63 -42 21 0 39 2 39 5 0 3 -11 28 -25 55 -22 44 -23 51 -11 75 33 63 -7 95
-121 95 l-83 0 0 -115z m125 50 c0 -11 -8 -21 -17 -23 -14 -3 -18 3 -18 23 0
20 4 26 18 23 9 -2 17 -12 17 -23z"/>
<path d="M3280 1850 c0 -28 3 -30 35 -30 l35 0 0 -85 0 -85 40 0 40 0 0 85 0
85 35 0 c32 0 35 2 35 30 l0 30 -110 0 -110 0 0 -30z"/>
<path d="M3520 1765 l0 -115 45 0 45 0 0 115 0 115 -45 0 -45 0 0 -115z"/>
<path d="M3810 1850 c0 -28 3 -30 35 -30 l35 0 0 -85 0 -85 45 0 45 0 0 85 0
85 30 0 c27 0 30 3 30 30 l0 30 -110 0 -110 0 0 -30z"/>
<path d="M1022 1510 c-34 -21 -62 -72 -62 -112 0 -34 35 -85 69 -103 30 -15
125 -21 155 -9 12 5 16 21 16 75 l0 69 -56 0 -56 0 4 -35 c4 -39 -8 -47 -21
-13 -20 54 24 91 83 70 45 -17 46 -16 46 23 0 29 -5 37 -26 45 -43 17 -116 12
-152 -10z m142 -6 c9 -3 16 -14 16 -24 0 -16 -4 -17 -29 -7 -62 23 -125 -38
-97 -94 13 -26 60 -54 76 -44 16 10 12 45 -5 45 -8 0 -15 7 -15 15 0 10 11 15
35 15 l35 0 0 -55 0 -55 -61 0 c-74 0 -114 21 -130 67 -25 77 26 143 111 143
27 0 55 -3 64 -6z"/>
<path d="M1220 1405 l0 -125 49 0 50 0 3 53 3 52 28 -52 27 -53 89 0 c81 0 90
2 96 20 5 15 15 20 40 20 24 0 38 -6 45 -20 10 -18 21 -20 110 -20 l100 0 0
39 c0 37 2 39 36 46 63 11 99 66 78 120 -12 29 -60 45 -138 45 l-75 0 -3 -117
-3 -118 -49 118 -49 118 -50 -3 -51 -3 -45 -108 -45 -109 -24 47 c-17 34 -21
50 -13 58 21 21 13 74 -15 96 -22 17 -41 21 -110 21 l-84 0 0 -125z m182 93
c8 -7 17 -20 20 -28 8 -23 -9 -60 -28 -60 -15 0 -15 -3 3 -22 11 -13 28 -38
37 -55 l17 -33 -31 0 c-24 0 -33 7 -49 38 -39 76 -71 79 -71 6 0 -42 -1 -44
-30 -44 l-30 0 0 105 0 105 73 0 c44 0 79 -5 89 -12z m282 -80 c21 -51 41 -99
43 -105 9 -23 -55 -16 -67 7 -8 16 -21 20 -56 20 -37 0 -47 -4 -51 -20 -4 -15
-14 -20 -38 -20 l-33 0 35 83 c19 45 39 92 44 105 7 17 16 22 47 22 l39 0 37
-92z m254 76 c28 -19 29 -64 3 -88 -11 -10 -38 -20 -60 -23 -40 -5 -41 -7 -41
-44 0 -37 -2 -39 -30 -39 l-30 0 0 105 0 105 68 0 c45 0 75 -5 90 -16z"/>
<path d="M1300 1455 c0 -30 3 -35 25 -35 13 0 28 8 34 17 13 25 -5 53 -34 53
-22 0 -25 -4 -25 -35z m48 -3 c2 -7 -3 -12 -12 -12 -9 0 -16 7 -16 16 0 17 22
14 28 -4z"/>
<path d="M1586 1413 c-9 -26 -16 -48 -16 -50 0 -2 16 -3 35 -3 23 0 35 5 35
14 0 15 -28 86 -34 86 -2 0 -11 -21 -20 -47z m34 -24 c0 -5 -4 -9 -10 -9 -5 0
-10 7 -10 16 0 8 5 12 10 9 6 -3 10 -10 10 -16z"/>
<path d="M1840 1446 c0 -28 4 -36 18 -36 28 0 44 16 40 41 -2 18 -10 25 -30
27 -26 3 -28 1 -28 -32z m40 -1 c0 -8 -4 -15 -10 -15 -5 0 -10 7 -10 15 0 8 5
15 10 15 6 0 10 -7 10 -15z"/>
<path d="M1990 1405 l0 -125 50 0 50 0 0 45 c0 45 0 45 35 45 35 0 35 0 35
-45 l0 -45 50 0 50 0 0 125 0 125 -50 0 -50 0 0 -40 c0 -39 -1 -40 -35 -40
-34 0 -35 1 -35 40 l0 40 -50 0 -50 0 0 -125z m80 65 l0 -40 55 0 55 0 0 40
c0 38 2 40 30 40 l30 0 0 -105 0 -105 -29 0 c-28 0 -30 3 -33 43 l-3 42 -50 0
-50 0 -3 -42 c-3 -40 -5 -43 -33 -43 l-29 0 0 105 0 105 30 0 c28 0 30 -2 30
-40z"/>
<path d="M2282 1408 l3 -123 48 -3 47 -3 0 125 0 126 -50 0 -51 0 3 -122z m78
-3 l0 -105 -30 0 -30 0 0 105 0 105 30 0 30 0 0 -105z"/>
<path d="M2462 1516 c-56 -30 -79 -115 -47 -175 26 -51 115 -76 179 -51 22 8
26 16 26 51 0 35 -2 40 -17 34 -59 -26 -103 -13 -103 30 0 43 44 56 103 30 15
-6 17 -1 17 38 0 38 -3 46 -22 51 -39 10 -112 6 -136 -8z m136 -33 c3 -19 0
-21 -36 -16 -32 4 -44 1 -61 -16 -47 -47 -8 -117 62 -108 31 4 37 2 37 -13 0
-22 -19 -30 -77 -30 -36 0 -50 6 -74 29 -24 24 -29 38 -29 76 0 38 5 52 30 76
27 27 35 30 87 27 51 -3 58 -6 61 -25z"/>
<path d="M2778 1415 c-27 -63 -48 -120 -48 -125 0 -6 22 -10 49 -10 40 0 50 3
54 20 4 15 14 20 42 20 28 0 38 -5 42 -20 4 -17 14 -20 54 -20 28 0 49 5 49
11 0 6 -21 62 -47 125 l-48 114 -50 0 -50 0 -47 -115z m179 -10 l42 -100 -27
-3 c-19 -3 -31 3 -41 17 -10 16 -24 21 -56 21 -32 0 -46 -5 -56 -21 -10 -14
-22 -20 -41 -17 l-26 3 25 60 c65 156 58 147 100 143 37 -3 38 -3 80 -103z"/>
<path d="M2856 1420 c-22 -56 -21 -60 20 -60 33 0 36 2 30 25 -9 34 -25 75
-30 75 -2 0 -11 -18 -20 -40z m28 -25 c3 -9 0 -15 -9 -15 -9 0 -12 6 -9 15 4
8 7 15 9 15 2 0 5 -7 9 -15z"/>
<path d="M3030 1406 l0 -126 50 0 50 0 0 46 c0 39 2 45 14 34 8 -6 20 -27 26
-46 11 -33 14 -34 61 -34 48 0 50 1 43 23 -3 12 -15 39 -26 61 -14 27 -17 41
-9 49 17 17 13 62 -8 88 -17 21 -29 24 -110 27 l-91 4 0 -126z m178 88 c28
-20 28 -58 0 -79 -21 -15 -22 -17 -5 -26 17 -10 47 -59 47 -79 0 -5 -13 -10
-29 -10 -23 0 -30 6 -35 26 -7 27 -48 74 -66 74 -5 0 -10 -22 -10 -50 0 -49
-1 -50 -30 -50 l-30 0 0 105 0 105 68 0 c45 0 75 -5 90 -16z"/>
<path d="M3110 1455 c0 -34 2 -36 28 -33 23 3 27 8 27 33 0 25 -4 30 -27 33
-26 3 -28 1 -28 -33z m40 0 c0 -8 -4 -15 -10 -15 -5 0 -10 7 -10 15 0 8 5 15
10 15 6 0 10 -7 10 -15z"/>
<path d="M3270 1490 c0 -39 1 -40 35 -40 l35 0 0 -85 0 -85 50 0 50 0 0 84 0
85 33 3 c29 3 32 6 35 41 l3 37 -120 0 -121 0 0 -40z m220 0 c0 -16 -7 -20
-35 -20 l-35 0 0 -85 0 -85 -30 0 -30 0 0 85 0 85 -35 0 c-28 0 -35 4 -35 20
0 19 7 20 100 20 93 0 100 -1 100 -20z"/>
<path d="M3520 1404 l0 -125 48 3 47 3 3 123 3 122 -51 0 -50 0 0 -126z m80 1
l0 -105 -30 0 -30 0 0 105 0 105 30 0 30 0 0 -105z"/>
<path d="M3655 1505 c-36 -35 -32 -71 11 -111 36 -34 27 -47 -17 -24 -17 10
-19 7 -19 -33 0 -38 3 -46 23 -51 67 -18 129 1 147 44 14 34 4 58 -42 94 -22
17 -28 26 -17 26 9 0 22 -7 29 -15 17 -20 30 -19 30 3 0 15 6 17 35 14 l35 -4
0 -84 0 -84 50 0 50 0 0 85 0 85 35 0 c34 0 35 1 35 40 l0 40 -120 0 c-102 0
-120 -2 -120 -16 0 -14 -2 -14 -22 0 -35 25 -94 20 -123 -9z m113 -7 c24 -24
14 -37 -23 -31 -31 5 -35 3 -35 -15 0 -14 11 -27 30 -37 40 -21 55 -51 41 -81
-18 -41 -123 -48 -129 -8 -3 18 1 20 33 16 29 -3 35 -1 35 14 0 11 -16 32 -35
47 -38 31 -45 60 -18 89 19 21 82 25 101 6z m252 -8 c0 -16 -7 -20 -35 -20
l-35 0 0 -85 0 -85 -30 0 -30 0 0 85 0 85 -35 0 c-28 0 -35 4 -35 20 0 19 7
20 100 20 93 0 100 -1 100 -20z"/>
<path d="M1022 1160 c-34 -21 -62 -72 -62 -112 0 -34 35 -85 69 -103 30 -15
125 -21 155 -9 12 5 16 21 16 75 l0 69 -56 0 -56 0 4 -35 c4 -39 -8 -47 -21
-13 -20 54 24 91 83 70 45 -17 46 -16 46 23 0 29 -5 37 -26 45 -43 17 -116 12
-152 -10z m142 -6 c9 -3 16 -14 16 -24 0 -16 -4 -17 -29 -7 -62 23 -125 -38
-97 -94 13 -26 60 -54 76 -44 16 10 12 45 -5 45 -8 0 -15 7 -15 15 0 10 11 15
35 15 l35 0 0 -55 0 -55 -61 0 c-74 0 -114 21 -130 67 -25 77 26 143 111 143
27 0 55 -3 64 -6z"/>
<path d="M1220 1055 l0 -125 49 0 50 0 3 53 3 52 28 -52 27 -53 89 0 c81 0 90
2 96 20 5 15 15 20 40 20 24 0 38 -6 45 -20 10 -18 21 -20 110 -20 l100 0 0
39 c0 37 2 39 36 46 63 11 99 66 78 120 -12 29 -60 45 -138 45 l-75 0 -3 -117
-3 -118 -49 118 -49 118 -50 -3 -51 -3 -45 -108 -45 -109 -24 47 c-17 34 -21
50 -13 58 21 21 13 74 -15 96 -22 17 -41 21 -110 21 l-84 0 0 -125z m182 93
c8 -7 17 -20 20 -28 8 -23 -9 -60 -28 -60 -15 0 -15 -3 3 -22 11 -13 28 -38
37 -55 l17 -33 -31 0 c-24 0 -33 7 -49 38 -39 76 -71 79 -71 6 0 -42 -1 -44
-30 -44 l-30 0 0 105 0 105 73 0 c44 0 79 -5 89 -12z m282 -80 c21 -51 41 -99
43 -105 9 -23 -55 -16 -67 7 -8 16 -21 20 -56 20 -37 0 -47 -4 -51 -20 -4 -15
-14 -20 -38 -20 l-33 0 35 83 c19 45 39 92 44 105 7 17 16 22 47 22 l39 0 37
-92z m254 76 c28 -19 29 -64 3 -88 -11 -10 -38 -20 -60 -23 -40 -5 -41 -7 -41
-44 0 -37 -2 -39 -30 -39 l-30 0 0 105 0 105 68 0 c45 0 75 -5 90 -16z"/>
<path d="M1300 1105 c0 -30 3 -35 25 -35 13 0 28 8 34 17 13 25 -5 53 -34 53
-22 0 -25 -4 -25 -35z m48 -3 c2 -7 -3 -12 -12 -12 -9 0 -16 7 -16 16 0 17 22
14 28 -4z"/>
<path d="M1586 1063 c-9 -26 -16 -48 -16 -50 0 -2 16 -3 35 -3 23 0 35 5 35
14 0 15 -28 86 -34 86 -2 0 -11 -21 -20 -47z m34 -24 c0 -5 -4 -9 -10 -9 -5 0
-10 7 -10 16 0 8 5 12 10 9 6 -3 10 -10 10 -16z"/>
<path d="M1840 1096 c0 -28 4 -36 18 -36 28 0 44 16 40 41 -2 18 -10 25 -30
27 -26 3 -28 1 -28 -32z m40 -1 c0 -8 -4 -15 -10 -15 -5 0 -10 7 -10 15 0 8 5
15 10 15 6 0 10 -7 10 -15z"/>
<path d="M1990 1055 l0 -125 50 0 50 0 0 45 c0 45 0 45 35 45 35 0 35 0 35
-45 l0 -45 50 0 50 0 0 125 0 125 -50 0 -50 0 0 -40 c0 -39 -1 -40 -35 -40
-34 0 -35 1 -35 40 l0 40 -50 0 -50 0 0 -125z m80 65 l0 -40 55 0 55 0 0 40
c0 38 2 40 30 40 l30 0 0 -105 0 -105 -29 0 c-28 0 -30 3 -33 43 l-3 42 -50 0
-50 0 -3 -42 c-3 -40 -5 -43 -33 -43 l-29 0 0 105 0 105 30 0 c28 0 30 -2 30
-40z"/>
<path d="M2282 1058 l3 -123 48 -3 47 -3 0 125 0 126 -50 0 -51 0 3 -122z m78
-3 l0 -105 -30 0 -30 0 0 105 0 105 30 0 30 0 0 -105z"/>
<path d="M2462 1166 c-56 -30 -79 -115 -47 -175 26 -51 115 -76 179 -51 22 8
26 16 26 51 0 35 -2 40 -17 34 -59 -26 -103 -13 -103 30 0 43 44 56 103 30 15
-6 17 -1 17 38 0 38 -3 46 -22 51 -39 10 -112 6 -136 -8z m136 -33 c3 -19 0
-21 -36 -16 -32 4 -44 1 -61 -16 -47 -47 -8 -117 62 -108 31 4 37 2 37 -13 0
-22 -19 -30 -77 -30 -36 0 -50 6 -74 29 -24 24 -29 38 -29 76 0 38 5 52 30 76
27 27 35 30 87 27 51 -3 58 -6 61 -25z"/>
<path d="M2778 1065 c-27 -63 -48 -120 -48 -125 0 -6 22 -10 49 -10 40 0 50 3
54 20 4 15 14 20 42 20 28 0 38 -5 42 -20 4 -17 14 -20 54 -20 28 0 49 5 49
11 0 6 -21 62 -47 125 l-48 114 -50 0 -50 0 -47 -115z m179 -10 l42 -100 -27
-3 c-19 -3 -31 3 -41 17 -19 30 -93 30 -112 0 -10 -14 -22 -20 -41 -17 l-26 3
25 60 c65 156 58 147 100 143 37 -3 38 -3 80 -103z"/>
<path d="M2856 1070 c-22 -56 -21 -60 20 -60 33 0 36 2 30 25 -9 34 -25 75
-30 75 -2 0 -11 -18 -20 -40z m28 -25 c3 -9 0 -15 -9 -15 -9 0 -12 6 -9 15 4
8 7 15 9 15 2 0 5 -7 9 -15z"/>
<path d="M3030 1056 l0 -126 50 0 50 0 0 46 c0 39 2 45 14 34 8 -6 20 -27 26
-46 11 -33 14 -34 61 -34 48 0 50 1 43 23 -3 12 -15 39 -26 61 -14 27 -17 41
-9 49 17 17 13 62 -8 88 -17 21 -29 24 -110 27 l-91 4 0 -126z m178 88 c28
-20 28 -58 0 -79 -21 -15 -22 -17 -5 -26 17 -10 47 -59 47 -79 0 -5 -13 -10
-29 -10 -23 0 -30 6 -35 26 -7 27 -48 74 -66 74 -5 0 -10 -22 -10 -50 0 -49
-1 -50 -30 -50 l-30 0 0 105 0 105 68 0 c45 0 75 -5 90 -16z"/>
<path d="M3110 1105 c0 -34 2 -36 28 -33 23 3 27 8 27 33 0 25 -4 30 -27 33
-26 3 -28 1 -28 -33z m40 0 c0 -8 -4 -15 -10 -15 -5 0 -10 7 -10 15 0 8 5 15
10 15 6 0 10 -7 10 -15z"/>
<path d="M3270 1140 c0 -39 1 -40 35 -40 l35 0 0 -85 0 -85 50 0 50 0 0 84 0
85 33 3 c29 3 32 6 35 41 l3 37 -120 0 -121 0 0 -40z m220 0 c0 -16 -7 -20
-35 -20 l-35 0 0 -85 0 -85 -30 0 -30 0 0 85 0 85 -35 0 c-28 0 -35 4 -35 20
0 19 7 20 100 20 93 0 100 -1 100 -20z"/>
<path d="M3520 1054 l0 -125 48 3 47 3 3 123 3 122 -51 0 -50 0 0 -126z m80 1
l0 -105 -30 0 -30 0 0 105 0 105 30 0 30 0 0 -105z"/>
<path d="M3655 1155 c-36 -35 -32 -71 11 -111 36 -34 27 -47 -17 -24 -17 10
-19 7 -19 -33 0 -38 3 -46 23 -51 67 -18 129 1 147 44 14 34 4 58 -42 94 -22
17 -28 26 -17 26 9 0 22 -7 29 -15 17 -20 30 -19 30 3 0 15 6 17 35 14 l35 -4
0 -84 0 -84 50 0 50 0 0 85 0 85 35 0 c34 0 35 1 35 40 l0 40 -120 0 c-102 0
-120 -2 -120 -16 0 -14 -2 -14 -22 0 -35 25 -94 20 -123 -9z m113 -7 c24 -24
14 -37 -23 -31 -31 5 -35 3 -35 -15 0 -14 11 -27 30 -37 40 -21 55 -51 41 -81
-18 -41 -123 -48 -129 -8 -3 18 1 20 33 16 29 -3 35 -1 35 14 0 11 -16 32 -35
47 -38 31 -45 60 -18 89 19 21 82 25 101 6z m252 -8 c0 -16 -7 -20 -35 -20
l-35 0 0 -85 0 -85 -30 0 -30 0 0 85 0 85 -35 0 c-28 0 -35 4 -35 20 0 19 7
20 100 20 93 0 100 -1 100 -20z"/>
</g>
</svg>
