<?xml version="1.0" standalone="no"?>
<!DOCTYPE svg PUBLIC "-//W3C//DTD SVG 20010904//EN"
 "http://www.w3.org/TR/2001/REC-SVG-20010904/DTD/svg10.dtd">
<svg version="1.0" xmlns="http://www.w3.org/2000/svg"
 width="500.000000pt" height="500.000000pt" viewBox="0 0 500.000000 500.000000"
 preserveAspectRatio="xMidYMid meet">
<metadata>
Created by potrace 1.14, written by Peter Selinger 2001-2017
</metadata>
<g transform="translate(0.000000,500.000000) scale(0.100000,-0.100000)"
fill="#000000" stroke="none">
<path d="M3082 4688 c-44 -118 -163 -424 -171 -443 -5 -11 -146 -377 -313
-812 l-303 -793 -42 6 c-74 11 -121 -4 -169 -51 -37 -37 -43 -50 -49 -100 -12
-93 24 -168 99 -210 18 -10 4 -50 -198 -575 -119 -311 -221 -574 -226 -585
-16 -37 -200 -521 -200 -528 0 -3 86 -6 192 -4 l192 2 158 410 c261 676 337
874 390 1008 l50 128 32 -7 c99 -22 186 7 224 73 21 38 23 54 25 237 2 176 0
195 -15 199 -22 6 -53 -16 -44 -31 10 -17 -3 -15 -20 3 -13 13 0 52 106 327
66 172 125 322 130 333 4 11 25 65 46 120 20 55 42 114 50 130 7 17 83 215
170 440 86 226 185 482 219 570 35 88 66 170 70 183 l6 22 -195 0 -195 0 -19
-52z m-437 -2048 c17 -7 25 -16 23 -28 -3 -13 -12 -16 -44 -14 -69 6 -127 -62
-118 -138 1 -14 3 -33 3 -42 1 -9 12 -30 26 -47 19 -21 24 -36 20 -54 -5 -19
-2 -27 13 -31 29 -10 81 2 114 26 l29 20 -5 -41 c-6 -52 -29 -89 -64 -102 -27
-11 -107 -7 -120 5 -3 4 1 27 10 52 l16 44 -27 16 c-94 55 -104 223 -18 301
40 37 97 50 142 33z m-285 -84 c39 -81 17 -199 -46 -243 -45 -32 -132 -49
-151 -29 -13 12 15 34 49 39 71 9 111 68 104 154 -2 23 -12 57 -23 75 -15 25
-17 39 -10 55 9 20 11 21 33 7 13 -9 32 -35 44 -58z m-99 27 c4 -4 -14 -63
-39 -130 -41 -110 -47 -121 -64 -112 -74 40 -75 195 0 242 27 17 87 17 103 0z
m437 -56 c32 -109 -20 -205 -101 -190 -15 3 -27 6 -27 7 0 1 17 47 38 102 21
54 42 107 45 118 10 25 33 6 45 -37z m-195 -347 c-3 -11 -9 -23 -14 -26 -10
-6 -12 29 -2 39 13 13 21 7 16 -13z"/>
<path d="M1079 2793 c0 -10 -1 -128 -2 -263 l0 -245 35 -3 35 -3 -2 116 c0 73
4 127 12 146 14 34 62 58 99 51 47 -9 59 -44 61 -177 1 -66 2 -123 2 -127 1
-5 16 -8 34 -8 l34 0 -2 138 c-1 124 -4 143 -23 174 -12 20 -36 41 -52 48 -40
17 -106 7 -135 -20 -13 -12 -25 -18 -27 -13 -2 4 -3 52 -3 106 l1 97 -33 0
c-24 0 -33 -5 -34 -17z"/>
<path d="M2880 2545 l0 -265 35 0 35 0 0 265 0 265 -35 0 -35 0 0 -265z"/>
<path d="M505 2774 c-34 -34 -6 -81 40 -70 22 6 26 12 23 38 -4 38 -39 56 -63
32z"/>
<path d="M3473 2738 c-31 -8 -33 -11 -33 -54 0 -30 -4 -44 -12 -43 -32 4 -44
-3 -46 -26 -1 -22 2 -25 28 -25 l30 0 0 -109 c0 -60 3 -123 6 -141 11 -51 58
-72 140 -61 5 0 10 12 10 26 0 21 -5 25 -31 25 -50 0 -55 12 -55 142 l0 118
46 0 c43 0 45 1 42 27 -3 25 -6 27 -45 26 l-42 -1 -3 52 -3 52 -32 -8z"/>
<path d="M516 2640 c-17 -6 -19 -20 -20 -201 -1 -217 -7 -241 -66 -254 -22 -5
-30 -11 -26 -22 3 -8 6 -21 6 -28 0 -16 59 -5 95 19 52 34 58 64 60 283 1 216
0 220 -49 203z"/>
<path d="M745 2634 c-45 -23 -73 -53 -85 -89 -50 -152 33 -281 173 -269 26 2
62 12 78 21 115 68 112 276 -5 332 -50 25 -119 27 -161 5z m126 -51 c82 -49
69 -220 -19 -251 -75 -26 -149 54 -137 147 7 54 17 73 51 100 32 25 66 27 105
4z"/>
<path d="M1485 2463 l0 -183 36 0 37 0 0 118 c0 144 9 170 63 190 36 14 70 2
90 -32 16 -26 19 -51 19 -153 l0 -123 35 0 35 0 -3 138 c-4 153 -15 190 -67
217 -53 27 -144 10 -169 -32 -9 -16 -10 -15 -11 8 0 23 -5 27 -32 31 l-33 3 0
-182z"/>
<path d="M3145 2643 c-69 -18 -118 -99 -114 -190 2 -65 20 -107 58 -141 35
-30 74 -40 143 -36 71 4 98 17 91 43 -5 18 -11 19 -69 14 -95 -9 -140 16 -157
89 l-7 27 97 -1 c164 0 163 0 163 23 0 68 -38 142 -87 167 -22 12 -80 14 -118
5z m103 -63 c22 -21 39 -66 29 -76 -3 -3 -32 -6 -64 -6 -124 1 -122 0 -116 22
3 11 18 34 33 50 34 37 85 41 118 10z"/>
<path d="M3683 2643 c-10 -4 -13 -49 -13 -184 l0 -179 34 0 33 0 2 116 c1 88
5 123 18 144 18 32 55 52 78 44 12 -5 15 2 15 30 0 29 -4 36 -19 36 -36 0 -70
-19 -85 -47 l-15 -28 -1 31 c0 32 -19 46 -47 37z"/>
<path d="M3971 2629 c-68 -42 -98 -110 -88 -201 14 -119 112 -176 250 -147 36
8 47 15 43 26 -3 8 -6 19 -6 23 0 5 -29 7 -65 3 -42 -4 -75 -1 -95 7 -32 13
-60 55 -60 88 0 18 8 20 103 20 161 1 147 -3 147 40 -1 53 -33 118 -72 142
-44 27 -113 26 -157 -1z m135 -56 c15 -17 24 -36 22 -51 -3 -23 -6 -24 -86
-25 -45 0 -85 3 -88 6 -10 9 5 43 31 71 34 36 87 36 121 -1z"/>
<path d="M4355 2638 c-62 -34 -95 -87 -102 -165 -4 -44 -1 -63 21 -107 22 -45
34 -57 74 -74 62 -27 202 -19 202 11 -1 30 -16 36 -72 28 -67 -9 -104 3 -136
44 -12 15 -22 38 -22 50 0 22 3 23 113 23 61 0 118 1 125 1 18 1 14 79 -6 121
-24 49 -75 80 -131 80 -25 0 -55 -6 -66 -12z m114 -55 c12 -10 25 -33 30 -50
11 -37 20 -34 -112 -35 -66 0 -71 3 -63 30 20 62 100 92 145 55z"/>
<path d="M2647 1865 c-100 -25 -159 -114 -152 -228 4 -71 35 -130 87 -164 35
-24 53 -28 122 -30 47 -1 94 4 111 11 l30 12 0 102 1 102 -74 0 c-70 0 -73 -1
-70 -22 2 -18 10 -23 33 -25 17 0 35 -2 41 -2 6 -1 12 -26 13 -61 2 -56 1 -60
-24 -66 -14 -3 -49 -4 -77 -2 -43 5 -57 11 -84 41 -77 83 -63 218 27 271 38
22 121 29 156 13 25 -11 42 1 43 30 0 26 -108 37 -183 18z"/>
<path d="M2963 1872 c-29 -3 -33 -7 -34 -35 0 -18 -1 -114 -2 -214 l-2 -182
30 2 30 3 1 84 c1 47 2 89 3 94 2 14 81 -1 101 -19 11 -10 25 -43 31 -74 17
-78 24 -90 57 -89 l29 1 -22 76 c-24 84 -41 121 -56 121 -5 0 6 16 26 35 29
29 35 43 35 76 0 97 -75 137 -227 121z m127 -55 c85 -43 37 -152 -65 -145
l-39 3 -1 65 c-1 36 1 71 3 78 5 16 70 15 102 -1z"/>
<path d="M3398 1872 c-10 -2 -18 -5 -18 -6 0 -1 -31 -94 -70 -206 -38 -112
-67 -207 -64 -211 3 -5 16 -9 28 -9 20 0 26 10 45 68 l21 69 74 0 74 1 24 -66
c21 -63 25 -67 55 -70 l33 -3 -75 218 c-41 120 -75 218 -75 218 0 2 -39 0 -52
-3z m52 -168 l28 -81 -59 -1 c-33 0 -59 2 -59 6 -1 21 55 183 58 171 3 -8 17
-50 32 -95z"/>
<path d="M3698 1872 c-31 -3 -38 -7 -39 -25 0 -12 -1 -107 -2 -212 l0 -190 29
-2 30 -2 -1 84 -1 85 45 0 c95 1 163 57 163 135 0 97 -77 140 -224 127z m141
-66 c25 -23 31 -58 15 -94 -14 -35 -36 -49 -79 -52 -62 -4 -60 -6 -60 78 0 42
4 81 10 85 16 13 94 1 114 -17z"/>
<path d="M4018 1872 l-26 -3 0 -213 -1 -213 30 -1 29 -1 0 100 0 99 33 1 c83
3 146 1 159 -3 10 -4 13 -28 13 -97 -1 -88 -1 -92 22 -97 13 -4 27 -4 30 0 3
3 5 99 5 212 -1 213 -4 227 -41 217 -14 -4 -17 -18 -17 -91 l1 -87 -102 -3
-102 -2 -3 92 -3 93 -27 -3z"/>
<path d="M4425 1873 c-20 -4 -20 -11 -20 -215 l0 -211 28 -4 c17 -2 27 1 28 9
5 90 0 411 -7 417 -5 4 -18 5 -29 4z"/>
<path d="M4659 1858 c-56 -24 -76 -43 -101 -92 -48 -94 -29 -218 44 -280 41
-36 87 -49 163 -48 63 2 95 17 88 42 -5 18 -10 19 -42 13 -60 -12 -113 -5
-152 21 -89 59 -86 232 5 291 32 21 126 31 154 16 18 -9 23 -8 32 8 14 27 14
28 -17 39 -47 15 -128 11 -174 -10z"/>
<path d="M2935 1112 c-11 -2 -22 -8 -25 -13 -3 -5 -6 -100 -5 -211 l0 -203 29
0 30 0 0 90 1 90 37 3 c53 4 80 -26 102 -114 17 -68 18 -70 49 -70 l33 0 -13
41 c-7 22 -17 59 -23 83 -6 24 -20 52 -30 62 -19 19 -19 20 5 38 29 23 45 61
45 104 0 36 -56 97 -91 99 -81 4 -126 4 -144 1z m149 -63 c34 -27 36 -79 4
-109 -25 -23 -20 -22 -79 -25 l-46 -2 0 78 0 79 47 0 c33 0 55 -6 74 -21z"/>
<path d="M3247 1112 c-43 -3 -48 -5 -45 -25 3 -22 3 -22 106 -26 22 -1 22 -1
22 -186 0 -102 3 -186 8 -186 4 -1 17 -3 30 -4 l22 -2 0 188 0 189 23 1 c102
4 102 3 105 27 3 17 -2 22 -20 23 -109 3 -211 3 -251 1z"/>
<path d="M3762 1100 c-62 -38 -76 -118 -31 -167 13 -13 52 -38 87 -53 45 -21
65 -36 73 -57 23 -60 -36 -108 -114 -91 -71 15 -72 15 -72 -11 0 -28 32 -41
106 -42 86 -2 142 47 142 122 0 56 -27 87 -109 129 -84 43 -102 75 -64 115 26
27 84 34 121 15 16 -9 21 -7 28 12 13 33 0 41 -72 44 -48 2 -71 -2 -95 -16z"/>
<path d="M4003 1112 c-17 -3 -23 -10 -23 -28 0 -22 4 -25 28 -24 15 1 44 2 65
1 l37 -1 0 -188 0 -189 28 2 27 1 1 183 c1 100 4 185 7 187 3 3 31 5 64 5 55
1 59 2 61 25 1 17 -3 24 -16 25 -72 3 -261 3 -279 1z"/>
<path d="M2625 1098 c-24 -65 -135 -400 -135 -406 0 -5 12 -8 28 -8 24 2 30 9
50 67 l23 66 73 1 74 1 21 -67 c20 -62 24 -67 51 -68 17 -1 30 3 30 10 -1 6
-31 101 -69 211 l-68 200 -36 3 c-24 2 -39 -1 -42 -10z m95 -229 c0 -3 -27 -7
-60 -8 l-59 -2 20 58 c10 31 24 75 30 97 l11 40 29 -89 c16 -50 29 -93 29 -96z"/>
<path d="M3566 908 c1 -112 2 -208 3 -214 1 -9 26 -12 51 -5 3 0 5 94 4 208
l-1 208 -29 3 -29 3 1 -203z"/>
</g>
</svg>
